<?xml version="1.0" standalone="no"?>
<!DOCTYPE svg PUBLIC "-//W3C//DTD SVG 20010904//EN"
 "http://www.w3.org/TR/2001/REC-SVG-20010904/DTD/svg10.dtd">
<svg version="1.0" xmlns="http://www.w3.org/2000/svg"
 width="265.000000pt" height="265.000000pt" viewBox="0 0 265.000000 265.000000"
 preserveAspectRatio="xMidYMid meet">
<metadata>
Created by potrace 1.11, written by Peter Selinger 2001-2013
</metadata>
<g transform="translate(0.000000,265.000000) scale(0.100000,-0.100000)"
fill="#000000" stroke="none">
<path d="M0 1325 l0 -1325 1325 0 1325 0 0 1325 0 1325 -1325 0 -1325 0 0
-1325z m678 1018 c2 -9 -9 -13 -37 -13 l-41 0 0 -100 c0 -82 -3 -100 -15 -100
-12 0 -15 18 -15 100 l0 100 -35 0 c-25 0 -35 4 -35 15 0 13 14 15 87 13 58
-2 88 -7 91 -15z m40 -6 c2 -10 -3 -17 -12 -17 -10 0 -16 9 -16 21 0 24 23 21
28 -4z m462 8 c0 -10 -11 -15 -35 -15 l-35 0 0 -100 c0 -93 -1 -100 -20 -100
-19 0 -20 7 -20 100 l0 100 -35 0 c-33 0 -43 8 -28 23 3 4 44 7 90 7 67 0 83
-3 83 -15z m588 -2 c2 -9 -8 -13 -32 -13 l-35 0 -3 -97 c-3 -84 -6 -98 -20
-101 -16 -3 -18 7 -18 97 l0 101 -35 0 c-25 0 -35 4 -35 15 0 13 14 15 87 13
58 -2 88 -7 91 -15z m-1048 -128 c0 -69 -3 -85 -15 -85 -12 0 -15 16 -15 85 0
69 3 85 15 85 12 0 15 -16 15 -85z m150 65 c11 -11 20 -24 20 -30 0 -16 -30
-12 -36 5 -7 18 -45 20 -62 3 -13 -13 -16 -67 -4 -84 15 -22 42 -24 59 -4 18
21 43 27 43 10 0 -21 -41 -50 -70 -50 -44 0 -70 31 -70 84 0 36 5 48 26 65 34
26 68 27 94 1z m412 8 c11 -9 17 -35 20 -83 l5 -71 -55 -1 c-64 -2 -92 10 -92
37 0 28 25 47 70 55 31 5 40 11 38 23 -4 22 -35 27 -64 11 -33 -17 -44 -1 -15
22 27 22 70 25 93 7z m170 -5 c10 -9 18 -22 18 -30 0 -18 -26 -17 -34 2 -7 18
-37 20 -54 3 -20 -20 -15 -86 7 -98 23 -12 47 -5 55 16 3 8 12 14 20 14 25 0
-3 -49 -31 -56 -65 -17 -112 38 -92 109 15 55 72 76 111 40z m423 -8 c53 -52
19 -145 -52 -145 -47 0 -73 29 -73 84 0 36 5 48 26 65 35 28 69 26 99 -4z
m169 4 c15 -12 26 -30 26 -45 0 -23 -3 -24 -60 -24 -33 0 -60 -4 -60 -10 0
-13 37 -50 50 -50 6 0 18 9 27 20 18 21 43 27 43 10 0 -5 -9 -19 -20 -30 -47
-47 -130 -6 -130 65 0 43 36 85 73 85 13 0 36 -9 51 -21z m-1054 -64 c0 -11
-12 -15 -45 -15 -33 0 -45 4 -45 15 0 11 12 15 45 15 33 0 45 -4 45 -15z m588
-2 c2 -9 -10 -13 -42 -13 -35 0 -46 4 -46 16 0 12 9 14 42 12 23 -2 43 -9 46
-15z m-300 -951 l232 -2 0 235 c0 150 4 235 10 235 6 0 10 -85 10 -235 l0
-235 240 0 c153 0 240 -4 240 -10 0 -6 -87 -10 -240 -10 l-240 0 0 -230 0
-230 240 0 c153 0 240 -4 240 -10 0 -6 -87 -10 -240 -10 l-240 0 0 -245 c0
-157 -4 -245 -10 -245 -6 0 -10 88 -10 245 l0 245 -232 -2 -233 -3 -3 -243
c-1 -156 -6 -241 -12 -237 -6 4 -10 100 -10 246 l0 239 -230 0 c-147 0 -230 4
-230 10 0 6 83 10 230 10 l230 0 0 230 0 230 -230 0 c-147 0 -230 4 -230 10 0
6 83 10 230 10 l230 0 0 228 c0 126 3 232 8 236 4 4 9 -97 12 -226 l5 -233
233 -3z"/>
<path d="M1238 2203 c-37 -6 -55 -29 -31 -41 26 -14 63 3 63 28 0 11 -1 19 -2
19 -2 -1 -15 -4 -30 -6z"/>
<path d="M1792 2258 c-20 -20 -15 -75 10 -92 19 -13 25 -14 43 -2 23 16 31 56
15 86 -12 22 -49 27 -68 8z"/>
<path d="M1967 2263 c-19 -19 -5 -33 33 -33 41 0 49 7 28 28 -13 13 -50 16
-61 5z"/>
<path d="M1040 1010 l0 -230 235 0 235 0 0 230 0 230 -235 0 -235 0 0 -230z"/>
</g>
</svg>
